<svg width="14" height="14" viewBox="0 0 14 14" fill="none" xmlns="http://www.w3.org/2000/svg">
<g clip-path="url(#clip0_40_246)">
<path d="M5.24999 11.0833C2.33332 11.9583 2.33332 9.62501 1.16666 9.33335M9.33332 12.8333V10.5758C9.3552 10.2977 9.31762 10.0181 9.22308 9.75556C9.12854 9.49305 8.9792 9.25368 8.78499 9.05335C10.6167 8.84918 12.5417 8.15501 12.5417 4.97001C12.5415 4.15558 12.2282 3.37238 11.6667 2.78251C11.9326 2.06998 11.9138 1.28238 11.6142 0.583348C11.6142 0.583348 10.9258 0.379181 9.33332 1.44668C7.99633 1.08433 6.58698 1.08433 5.24999 1.44668C3.65749 0.379181 2.96916 0.583348 2.96916 0.583348C2.66954 1.28238 2.65074 2.06998 2.91666 2.78251C2.3509 3.37676 2.03729 4.16703 2.04166 4.98751C2.04166 8.14918 3.96666 8.84335 5.79832 9.07085C5.6064 9.26916 5.45839 9.50567 5.36392 9.76497C5.26945 10.0243 5.23063 10.3006 5.24999 10.5758V12.8333" stroke="white" stroke-linecap="round" stroke-linejoin="round"/>
</g>
<defs>
<clipPath id="clip0_40_246">
<rect width="14" height="14" fill="white"/>
</clipPath>
</defs>
</svg>
